<svg width="122" height="122" viewBox="0 0 122 122" fill="none" xmlns="http://www.w3.org/2000/svg">
<path d="M99.4 98.5C94.3 103.1 100 107.8 105 104.8C106.1 103.6 105 99.6 99.4 98.5ZM25.6 105.9C29.6 109.3 35.8 105 37.6 100.2C33.7 95.1 19.3 100.4 25.6 105.9ZM101.5 93.8C101.5 96.1 118.3 97.6 118.3 93.3C115.9 86.3 103.5 86.7 101.5 93.8ZM117.1 52.7L70.4 4.89999C64.7 -0.600006 55.2 -0.600006 49.8 4.89999L4.7 51C-10.5 69.9 15.1 67.7 26 73.1C29.9 77.1 10.9 80.1 14.9 84.1C18.8 88.1 38.7 91.8 42.6 95.9L38.5 108.2C42.4 112.2 51.5 108.4 53.2 117.7C54.4 124.3 69.6 120.5 77 115.1C80.9 111.1 69.5 111.5 73.4 107.4C83.2 97.4 92.3 103.8 95.6 93.7C97.3 88.7 81.2 86.1 85.1 82C96.5 75.5 135.6 71.2 117.1 52.7ZM61.1 83.8C56.3 85.1 33.1 75.6 38.9 75.6C40.1 76.3 58.3 80 62.8 80.8C64.4 81.1 63.3 82.7 61.1 83.8V83.8ZM86.2 32.3L77.4 25.2L75.7 35.7L68.3 31.8L56.5 39.3L52.6 23.8L46.1 35H36.4C32.4 35 32 29.7 35.6 26.1C41.9 19.3 49.1 12.3 53 8.29999C56.9 4.29999 63.8 4.29999 67.7 8.19999L85.5 26.3C87.2 28 87.2 31.3 86.2 32.3V32.3Z" fill="white"/>
</svg>
