<svg width="342" height="354" viewBox="0 0 342 354" fill="none" xmlns="http://www.w3.org/2000/svg">
<path d="M287.353 12.0702L262.501 173.498C261.925 177.239 258.706 180 254.922 180C252.459 180 250.146 178.817 248.704 176.82L125.975 6.8358C123.19 2.97856 117.905 1.91583 113.846 4.39684C111.654 5.73619 110.131 7.93881 109.65 10.4618L102.5 48L96.4113 78L63.9619 235.678C62.1747 244.362 68.8081 252.5 77.6745 252.5H78.75L120 49.5C122.5 42.1667 130.1 31.9 140.5 49.5L259.163 211.804C260.691 213.894 262.752 215.665 265.317 216.012C269.02 216.513 273.348 215.682 274.5 210.5L298.5 49.5C299.833 43.6667 305 36.1 315 52.5C325 68.9 327.5 69 327.5 68.5V52.6043C327.5 49.6136 326.542 46.7014 324.767 44.2945L298.903 9.22689C296.963 6.59621 293.36 5.83586 290.522 7.45825C288.818 8.4324 287.652 10.1303 287.353 12.0702Z" fill="black"/>
<path d="M39.5775 314.5H17.0371C2.27935 314.5 -2.43555 294.617 10.7508 287.991L53.5336 266.491C55.4841 265.51 57.6369 265 59.8199 265H73C74.391 265 75.3632 266.485 75.0766 267.846C74.2513 271.765 74.5605 277.051 76 281.5C78.5257 289.307 100.874 294.583 117.673 286.095C120.585 284.624 122.466 281.776 123.317 278.626L125.826 269.344C126.519 266.781 128.844 265 131.5 265H232.04C232.961 265 233.831 264.575 234.396 263.848C235.664 262.217 238.166 262.337 239.272 264.081L247.365 276.833C250.911 282.421 249.925 289.75 245.028 294.202L241.005 297.859C238.428 300.202 235.07 301.5 231.587 301.5H71.4225C69.1739 301.5 66.9585 302.042 64.9635 303.079L46.0364 312.921C44.0415 313.958 41.826 314.5 39.5775 314.5Z" fill="black"/>
<path d="M78.75 252.5H77.6745C68.8081 252.5 62.1747 244.362 63.9619 235.678L96.4113 78L102.5 48L109.65 10.4618C110.131 7.93881 111.654 5.73618 113.846 4.39684V4.39684C117.905 1.91583 123.19 2.97856 125.975 6.8358L248.704 176.82C250.146 178.817 252.459 180 254.922 180V180C258.706 180 261.925 177.239 262.501 173.498L287.353 12.0702C287.652 10.1303 288.818 8.4324 290.522 7.45825V7.45825C293.36 5.83586 296.963 6.59621 298.903 9.22689L324.767 44.2945C326.542 46.7014 327.5 49.6136 327.5 52.6043V68.5C327.5 69 325 68.9 315 52.5C305 36.1 299.833 43.6667 298.5 49.5L274.5 210.5C273.348 215.682 269.02 216.513 265.317 216.012C262.752 215.665 260.691 213.894 259.163 211.804L140.5 49.5C130.1 31.9 122.5 42.1667 120 49.5L78.75 252.5ZM78.75 252.5L78 255M76 281.5C74.5605 277.051 74.2513 271.765 75.0766 267.846C75.3632 266.485 74.391 265 73 265V265H59.8199C57.6369 265 55.4841 265.511 53.5336 266.491L10.7508 287.991C-2.43555 294.617 2.27935 314.5 17.0371 314.5H39.5775C41.826 314.5 44.0415 313.958 46.0364 312.921L64.9635 303.079C66.9585 302.042 69.1739 301.5 71.4225 301.5H231.587C235.07 301.5 238.428 300.202 241.005 297.859L245.028 294.202C249.925 289.75 250.911 282.421 247.365 276.833L239.272 264.081C238.166 262.337 235.664 262.217 234.396 263.848V263.848C233.831 264.575 232.961 265 232.04 265H131.5V265C128.844 265 126.519 266.781 125.826 269.344L123.317 278.626C122.466 281.776 120.585 284.624 117.673 286.095C100.874 294.583 78.5257 289.307 76 281.5Z" stroke="black" stroke-width="5" stroke-linejoin="round"/>
<path d="M146.5 155L124.105 277.027C122.886 283.673 117.093 288.5 110.335 288.5H96.75H88.6745C79.8081 288.5 73.1747 280.362 74.9619 271.678L107.411 114L113.5 84L120.65 46.4618C121.131 43.9388 122.654 41.7362 124.846 40.3968C128.905 37.9158 134.19 38.9786 136.975 42.8358L259.704 212.82C261.146 214.817 263.459 216 265.922 216C269.706 216 272.925 213.239 273.501 209.498L298.353 48.0702C298.652 46.1303 299.818 44.4324 301.522 43.4583C304.36 41.8359 307.963 42.5962 309.903 45.2269L335.089 79.3749C337.274 82.3383 338.205 86.0435 337.678 89.6878L306.069 308.344C305.91 309.444 305.62 310.521 305.206 311.553L297.56 330.612C296.542 333.149 294.805 335.332 292.561 336.892L276.604 347.993C274.258 349.625 271.468 350.5 268.609 350.5H28.0371C13.2794 350.5 8.56445 330.617 21.7508 323.991L64.5336 302.491C66.4841 301.51 68.6369 301 70.8199 301H239.277C242.646 301 245.901 299.786 248.447 297.58L249.442 296.717C251.107 295.274 252.287 293.353 252.821 291.216C253.57 288.219 252.99 285.044 251.229 282.506L150 136.607L146.5 155Z" fill="#E0674E"/>
<path d="M113.5 84L120.65 46.4618C121.131 43.9388 122.654 41.7362 124.846 40.3968V40.3968C128.905 37.9158 134.19 38.9786 136.975 42.8358L259.704 212.82C261.146 214.817 263.459 216 265.922 216V216C269.706 216 272.925 213.239 273.501 209.498L298.353 48.0702C298.652 46.1303 299.818 44.4324 301.522 43.4583V43.4583C304.36 41.8359 307.963 42.5962 309.903 45.2269L335.089 79.3749C337.274 82.3383 338.205 86.0435 337.678 89.6878L306.069 308.344C305.91 309.444 305.62 310.521 305.206 311.553L297.56 330.612C296.542 333.149 294.805 335.332 292.561 336.892L276.604 347.993C274.258 349.625 271.468 350.5 268.609 350.5H28.0371C13.2794 350.5 8.56445 330.617 21.7508 323.991L64.5336 302.491C66.4841 301.511 68.6369 301 70.8199 301H239.278C242.646 301 245.901 299.786 248.447 297.58L249.442 296.717C251.107 295.274 252.287 293.353 252.821 291.216V291.216C253.57 288.219 252.99 285.044 251.229 282.506L150 136.607M113.5 84L107.411 114L74.9619 271.678C73.1747 280.362 79.8081 288.5 88.6745 288.5H96.75H110.335C117.093 288.5 122.886 283.673 124.105 277.027L146.5 155L150 136.607M113.5 84L150 136.607" stroke="black" stroke-width="7" stroke-linejoin="round"/>
</svg>
