<svg width="24" height="24" viewBox="0 0 24 24" fill="none" xmlns="http://www.w3.org/2000/svg">
<path d="M22.5 18.9C22.4 18.8 22.3 18.8 22.2 18.8H10.9C10.8 18.8 10.7 18.8 10.6 18.9C10.5 19 10.5 19.1 10.5 19.2V20C10.5 20.1 10.5 20.2 10.6 20.3C10.7 20.4 10.8 20.4 10.9 20.4H22.2C22.3 20.4 22.4 20.4 22.5 20.3C22.6 20.2 22.6 20.1 22.6 20V19.2C22.6 19 22.6 18.9 22.5 18.9ZM4.4 7.7C4.3 7.6 4.2 7.6 4.1 7.6C4 7.6 3.9 7.6 3.8 7.7L3.3 8.3C3.2 8.4 3.2 8.5 3.2 8.6C3.2 8.7 3.2 8.8 3.3 8.9L7.9 13.5L3.3 18.1C3.2 18.2 3.2 18.3 3.2 18.4C3.2 18.5 3.2 18.6 3.3 18.7L3.9 19.3C4 19.4 4.1 19.4 4.2 19.4C4.3 19.4 4.4 19.4 4.5 19.3L10 13.8C10.1 13.7 10.1 13.6 10.1 13.5C10.1 13.4 10.1 13.3 10 13.2L4.4 7.7Z" fill="url(#paint0_linear)"/>
<defs>
<linearGradient id="paint0_linear" x1="3.164" y1="13.9432" x2="22.618" y2="13.9432" gradientUnits="userSpaceOnUse">
<stop stop-color="#1BAA18"/>
<stop offset="0.9999" stop-color="#21A220"/>
<stop offset="1" stop-color="#9909B7"/>
</linearGradient>
</defs>
</svg>
